<svg width="200" height="56" viewBox="0 0 200 56" fill="none" xmlns="http://www.w3.org/2000/svg">
<g clip-path="url(#clip0_5_34)">
<path d="M71.5615 16.6077H91.1994V19.8272H76.1153V26.4571H88.9378V29.6794H76.1153V38.7536H71.5615V16.6077Z" fill="black"/>
<path d="M98.0681 16.6077H102.652V38.7536H98.0681V16.6077Z" fill="black"/>
<path d="M117.986 19.8576H109.343V16.6077H131.243V19.8576H122.57V38.7536H117.986V19.8576Z" fill="black"/>
<path d="M138 16.6077H142.584V38.7536H138V16.6077Z" fill="black"/>
<path d="M151.792 16.6077H171.429V19.8272H156.345V26.4571H169.171V29.6794H156.345V38.7536H151.792V16.6077Z" fill="black"/>
<path d="M185.907 29.3998L175.839 16.6077H180.908L188.382 26.0861L195.474 16.6077H200.009L190.5 29.3998V38.7536H185.915L185.907 29.3998Z" fill="black"/>
<path d="M71.5615 16.6077H91.1994V19.8272H76.1153V26.4571H88.9378V29.6794H76.1153V38.7536H71.5615V16.6077Z" fill="black"/>
<path d="M98.0681 16.6077H102.652V38.7536H98.0681V16.6077Z" fill="black"/>
<path d="M117.986 19.8576H109.343V16.6077H131.243V19.8576H122.57V38.7536H117.986V19.8576Z" fill="black"/>
<path d="M138 16.6077H142.584V38.7536H138V16.6077Z" fill="black"/>
<path d="M151.792 16.6077H171.429V19.8272H156.345V26.4571H169.171V29.6794H156.345V38.7536H151.792V16.6077Z" fill="black"/>
<path d="M185.907 29.3998L175.839 16.6077H180.908L188.382 26.0861L195.474 16.6077H200.009L190.5 29.3998V38.7536H185.915L185.907 29.3998Z" fill="black"/>
<path d="M71.5615 16.6077H91.1994V19.8272H76.1153V26.4571H88.9378V29.6794H76.1153V38.7536H71.5615V16.6077Z" fill="black"/>
<path d="M98.0681 16.6077H102.652V38.7536H98.0681V16.6077Z" fill="black"/>
<path d="M117.986 19.8576H109.343V16.6077H131.243V19.8576H122.57V38.7536H117.986V19.8576Z" fill="black"/>
<path d="M138 16.6077H142.584V38.7536H138V16.6077Z" fill="black"/>
<path d="M151.792 16.6077H171.429V19.8272H156.345V26.4571H169.171V29.6794H156.345V38.7536H151.792V16.6077Z" fill="black"/>
<path d="M185.907 29.3998L175.839 16.6077H180.908L188.382 26.0861L195.474 16.6077H200.009L190.5 29.3998V38.7536H185.915L185.907 29.3998Z" fill="black"/>
<path d="M71.5615 16.6077H91.1994V19.8272H76.1153V26.4571H88.9378V29.6794H76.1153V38.7536H71.5615V16.6077Z" fill="black"/>
<path d="M98.0681 16.6077H102.652V38.7536H98.0681V16.6077Z" fill="black"/>
<path d="M117.986 19.8576H109.343V16.6077H131.243V19.8576H122.57V38.7536H117.986V19.8576Z" fill="black"/>
<path d="M138 16.6077H142.584V38.7536H138V16.6077Z" fill="black"/>
<path d="M151.792 16.6077H171.429V19.8272H156.345V26.4571H169.171V29.6794H156.345V38.7536H151.792V16.6077Z" fill="black"/>
<path d="M185.907 29.3998L175.839 16.6077H180.908L188.382 26.0861L195.474 16.6077H200.009L190.5 29.3998V38.7536H185.915L185.907 29.3998Z" fill="black"/>
<path d="M71.5615 16.6077H91.1994V19.8272H76.1153V26.4571H88.9378V29.6794H76.1153V38.7536H71.5615V16.6077Z" fill="black"/>
<path d="M98.0681 16.6077H102.652V38.7536H98.0681V16.6077Z" fill="black"/>
<path d="M117.986 19.8576H109.343V16.6077H131.243V19.8576H122.57V38.7536H117.986V19.8576Z" fill="black"/>
<path d="M138 16.6077H142.584V38.7536H138V16.6077Z" fill="black"/>
<path d="M151.792 16.6077H171.429V19.8272H156.345V26.4571H169.171V29.6794H156.345V38.7536H151.792V16.6077Z" fill="black"/>
<path d="M185.907 29.3998L175.839 16.6077H180.908L188.382 26.0861L195.474 16.6077H200.009L190.5 29.3998V38.7536H185.915L185.907 29.3998Z" fill="black"/>
<path d="M38.747 0.139763L2.14539 13.1505C1.51698 13.3742 0.973243 13.7871 0.589065 14.3323C0.204887 14.8776 -0.00086228 15.5285 2.71626e-06 16.1956V26.0478C-6.81733e-05 26.4354 0.0928346 26.8174 0.271015 27.1616C0.449195 27.5059 0.70738 27.8023 1.0239 28.0261C1.34042 28.2499 1.70601 28.3944 2.08997 28.4475C2.47394 28.5007 2.86511 28.4609 3.23052 28.3316L39.8321 15.3208C40.4606 15.0969 41.0044 14.6841 41.389 14.1389C41.7736 13.5938 41.9802 12.9429 41.9804 12.2758V2.41802C41.9797 2.03053 41.886 1.64887 41.7073 1.30505C41.5286 0.961226 41.2701 0.665327 40.9534 0.442134C40.6366 0.218941 40.2709 0.0749763 39.887 0.0223694C39.5031 -0.0302375 39.1121 0.0100083 38.747 0.139763Z" fill="black"/>
<path d="M3.49674 51.8519L12.9918 55.2264C13.3573 55.3563 13.7488 55.3965 14.1331 55.3436C14.5175 55.2907 14.8834 55.1463 15.2003 54.9224C15.5172 54.6986 15.7756 54.402 15.954 54.0575C16.1323 53.7129 16.2253 53.3306 16.2251 52.9426V43.6772L3.4912 48.2006C3.11449 48.3353 2.7887 48.5833 2.55854 48.9105C2.32839 49.2377 2.20515 49.6281 2.20575 50.0282C2.20636 50.4283 2.33077 50.8184 2.56192 51.1449C2.79307 51.4714 3.11962 51.7184 3.49674 51.8519Z" fill="black"/>
<path d="M37.7901 21.714C37.7899 21.3262 37.6967 20.9442 37.5182 20.6C37.3397 20.2559 37.081 19.9596 36.7642 19.7361C36.4474 19.5125 36.0816 19.3684 35.6975 19.3156C35.3133 19.2629 34.9221 19.3031 34.5568 19.4329L2.15455 30.9488C1.52591 31.1721 0.982052 31.5849 0.597818 32.1303C0.213585 32.6757 0.00789135 33.3267 0.00916112 33.9938V46.224C0.00916112 46.224 0.0285983 47.2565 0.0701219 48.1424C0.0739295 48.1954 0.0948249 48.2456 0.129866 48.2856C0.164908 48.3255 0.212041 48.3529 0.264088 48.3636C0.316135 48.3742 0.370261 48.3676 0.41818 48.3446C0.466099 48.3217 0.505224 48.2837 0.529558 48.2364C0.992295 47.2923 1.80907 46.5691 2.80227 46.224L35.6337 34.5558C36.2626 34.3326 36.8069 33.9199 37.1916 33.3746C37.5763 32.8293 37.7826 32.1781 37.7819 31.5107L37.7901 21.714Z" fill="black"/>
</g>
<defs>
<clipPath id="clip0_5_34">
<rect width="200" height="55.3649" fill="white"/>
</clipPath>
</defs>
</svg>
